<svg width="20" height="20" viewBox="0 0 20 20" fill="none" xmlns="http://www.w3.org/2000/svg">
<path d="M8.6 15.75V12.6C8.6 12.3167 8.69583 12.0792 8.8875 11.8875C9.07917 11.6958 9.31667 11.6 9.6 11.6C9.88333 11.6 10.1208 11.6958 10.3125 11.8875C10.5042 12.0792 10.6 12.3167 10.6 12.6L10.575 15.725L11.675 14.625C11.875 14.425 12.1167 14.325 12.4 14.325C12.6833 14.325 12.925 14.425 13.125 14.625C13.325 14.825 13.425 15.0667 13.425 15.35C13.425 15.6333 13.325 15.875 13.125 16.075L10.3 18.9C10.1 19.1 9.86667 19.2 9.6 19.2C9.33333 19.2 9.1 19.1 8.9 18.9L6.05 16.05C5.85 15.85 5.75417 15.6125 5.7625 15.3375C5.77083 15.0625 5.875 14.825 6.075 14.625C6.275 14.425 6.5125 14.325 6.7875 14.325C7.0625 14.325 7.3 14.425 7.5 14.625L8.6 15.75ZM3.475 10.6L4.575 11.675C4.775 11.875 4.875 12.1167 4.875 12.4C4.875 12.6833 4.775 12.925 4.575 13.125C4.375 13.325 4.13333 13.425 3.85 13.425C3.56667 13.425 3.325 13.325 3.125 13.125L0.3 10.3C0.1 10.1 0 9.86667 0 9.6C0 9.33333 0.1 9.1 0.3 8.9L3.125 6.075C3.325 5.875 3.5625 5.775 3.8375 5.775C4.1125 5.775 4.35 5.875 4.55 6.075C4.75 6.275 4.85 6.5125 4.85 6.7875C4.85 7.0625 4.75 7.3 4.55 7.5L3.45 8.6H6.6C6.88333 8.6 7.12083 8.69583 7.3125 8.8875C7.50417 9.07917 7.6 9.31667 7.6 9.6C7.6 9.88333 7.50417 10.1208 7.3125 10.3125C7.12083 10.5042 6.88333 10.6 6.6 10.6H3.475ZM15.75 10.6H12.6C12.3167 10.6 12.0792 10.5042 11.8875 10.3125C11.6958 10.1208 11.6 9.88333 11.6 9.6C11.6 9.31667 11.6958 9.07917 11.8875 8.8875C12.0792 8.69583 12.3167 8.6 12.6 8.6L15.725 8.625L14.625 7.525C14.425 7.325 14.325 7.08333 14.325 6.8C14.325 6.51667 14.425 6.275 14.625 6.075C14.825 5.875 15.0667 5.775 15.35 5.775C15.6333 5.775 15.875 5.875 16.075 6.075L18.9 8.9C19.1 9.1 19.2 9.33333 19.2 9.6C19.2 9.86667 19.1 10.1 18.9 10.3L16.05 13.15C15.85 13.35 15.6167 13.4458 15.35 13.4375C15.0833 13.4292 14.85 13.325 14.65 13.125C14.45 12.925 14.35 12.6875 14.35 12.4125C14.35 12.1375 14.45 11.9 14.65 11.7L15.75 10.6ZM8.6 3.45L7.475 4.575C7.275 4.775 7.04167 4.875 6.775 4.875C6.50833 4.875 6.275 4.775 6.075 4.575C5.875 4.375 5.775 4.1375 5.775 3.8625C5.775 3.5875 5.875 3.35 6.075 3.15L8.9 0.3C9.1 0.1 9.33333 0 9.6 0C9.86667 0 10.1 0.1 10.3 0.3L13.15 3.15C13.35 3.35 13.45 3.58333 13.45 3.85C13.45 4.11667 13.35 4.35 13.15 4.55C12.95 4.75 12.7125 4.85 12.4375 4.85C12.1625 4.85 11.925 4.75 11.725 4.55L10.6 3.45V6.6C10.6 6.88333 10.5042 7.12083 10.3125 7.3125C10.1208 7.50417 9.88333 7.6 9.6 7.6C9.31667 7.6 9.07917 7.50417 8.8875 7.3125C8.69583 7.12083 8.6 6.88333 8.6 6.6V3.45Z" fill="#0E0E0E"/>
</svg>
